<svg xmlns="http://www.w3.org/2000/svg" xmlns:xlink="http://www.w3.org/1999/xlink" version="1.1" x="0px" y="0px" viewBox="0 0 52 65" style="enable-background:new 0 0 52 52;" xml:space="preserve"><path d="M51,25.1c-0.8-6.7-4.9-10.6-11.3-10.7c-2.2-0.1-4.2,0.7-5.8,2.1c0.6-2.4,1.8-5.5,4.3-7.8c0.4-0.4,0.4-1,0.1-1.4  c-0.4-0.4-1-0.4-1.4-0.1c-1,0.9-1.8,1.9-2.4,2.9c-0.8-1.7-2-3.1-3.6-4c-2.3-1.4-5-1.6-7.7-0.7c-0.5,0.2-0.8,0.6-0.7,1.1  c0.5,2.8,2,5.1,4.3,6.5c1.7,1,3.6,1.4,5.8,1.1c-0.4,1.2-0.7,2.3-0.8,3.2c-1.7-1.9-4.1-2.9-6.7-2.9c-2.8,0.1-5.2,0.9-7,2.4  c-0.1-0.3-0.1-0.5-0.2-0.8c-1-3.9-1.6-7.2-1.8-10.4C16.7,5,17.3,4.1,17.3,3c0-1.7-1.4-3-3-3H6.8c-1.7,0-3,1.4-3,3c0,1,0.5,2,1.3,2.5  C4.8,8.7,4.2,12,3.2,15.9c-1.6,6.2-2.4,12.4-2.4,18.4v14.8C0.9,50.7,2.2,52,4,52H17c1.7,0,3.1-1.3,3.1-2.9v-5.6  c1.6,1.5,3.4,2.6,5.2,3.1c1.9,0.5,3.7,0,5.2-1.3c1-0.8,2.5-0.8,3.5,0c1.6,1.3,3.4,1.8,5.2,1.3C47.1,44.6,52,33.3,51,25.1z   M27.8,11.1c-1.5-0.9-2.6-2.4-3.1-4.2c1.8-0.4,3.6-0.1,5.2,0.8c1.5,0.9,2.6,2.4,3.1,4.2C31.1,12.2,29.3,12,27.8,11.1z M6.8,2h7.5  c0.5,0,1,0.4,1,1s-0.4,1-1,1H6.8c-0.5,0-1-0.4-1-1S6.2,2,6.8,2z M5.2,16.4c1-3.9,1.6-7.2,1.9-10.3h6.8c0.3,3.1,0.9,6.5,1.9,10.3  c1.5,5.9,2.3,11.7,2.3,17.4c-1.4-0.4-2.9-0.1-4.1,0.9c-0.9,0.7-1.9,0.7-2.8,0c-1.8-1.5-4-1.5-5.8,0c-0.8,0.6-1.6,0.7-2.4,0.3v-0.7  C2.9,28.5,3.7,22.5,5.2,16.4z M17,50H4c-0.6,0-1.1-0.4-1.1-0.8V37.2c1.3,0.3,2.6,0.1,3.7-0.9c1-0.9,2.2-0.9,3.2,0  c1.7,1.4,3.7,1.4,5.4,0c0.9-0.8,1.9-0.8,2.8-0.3v13.1C18.1,49.6,17.6,50,17,50z M38.8,44.7c-1.5,0.4-2.7-0.3-3.4-0.9  c-1.8-1.5-4.3-1.5-6.1,0c-0.7,0.6-1.9,1.3-3.4,0.9c-2.1-0.6-4.1-2-5.8-4.2v-6.2c0-5-0.6-10.2-1.7-15.4c1.6-1.7,3.8-2.6,6.6-2.6  c2.7-0.1,5.3,1.6,6.4,4.2c0.4,0.8,1.5,0.8,1.9,0c1.1-2.6,3.7-4.3,6.4-4.2c7.2,0.2,8.9,5.7,9.3,8.9C49.9,32.8,45.6,42.9,38.8,44.7z"/><text x="0" y="67" fill="#000000" font-size="5px" font-weight="bold" font-family="'Helvetica Neue', Helvetica, Arial-Unicode, Arial, Sans-serif">Created by Vectors Market</text><text x="0" y="72" fill="#000000" font-size="5px" font-weight="bold" font-family="'Helvetica Neue', Helvetica, Arial-Unicode, Arial, Sans-serif">from the Noun Project</text></svg>