<svg xmlns="http://www.w3.org/2000/svg" xmlns:xlink="http://www.w3.org/1999/xlink" version="1.1" x="0px" y="0px" viewBox="0 0 91 113.75" style="enable-background:new 0 0 91 91;" xml:space="preserve"><g><path d="M33.6,53.8c0.8,0.2,1.9-0.2,2.6-4.2c0.5-2.9,0.9-5.9,1.4-8.8c0.4-3,0.9-5.9,1.2-8.9c0.2-1.3,0.3-2.7-0.2-4   c-0.3-0.6-1.2-0.7-1.6-0.2c-0.9,1-1.2,2.5-1.4,3.8c-0.6,2.9-1.1,5.7-1.6,8.6c-0.5,2.8-0.8,5.7-1.4,8.5   C31.3,52.6,33.2,53.7,33.6,53.8z"/><path d="M46.9,62.7c1.1,0,2.3-0.8,2.3-3.3c0-1.3,0-2.5,0-3.8c0-3.8,0.1-7.7,0-11.5c-0.1-3.7-0.2-7.4-0.5-11.2c-0.1-1.5-0.1-3.7-1-5   c-0.3-0.4-0.8-0.4-1.1,0c-0.9,1.3-0.9,3.3-1,4.8c-0.3,3.8-0.6,7.6-0.7,11.4c-0.1,3.8-0.2,7.5-0.2,11.3c0,1.3-0.1,2.6-0.1,3.9   C44.6,61.6,45.8,62.7,46.9,62.7z"/><path d="M56.1,43.8c0.8,5.3,1.7,10.6,2.5,16c0.5,2.8,4.7,1.6,4.2-1.2C62,53.4,61.1,48.2,60.2,43c-0.6-3.5-1.2-7-2.1-10.4   c-0.4-1.5-0.7-3.3-1.5-4.7c-0.5-0.8-1.8-0.7-2,0.3c-0.4,1.5-0.1,3.3,0.1,4.9C54.9,36.7,55.5,40.3,56.1,43.8z"/><path d="M31.8,60.9c1.1,0.7,2.6,0.2,3.2-0.8c0.5-0.8,0.4-1.9,0-2.7c-0.6-1-1.8-1.5-2.9-1.2c-0.9,0.2-1.5,1.1-1.5,2   c0,0.1-0.1,0.3-0.1,0.5C30.5,59.5,31.1,60.4,31.8,60.9z"/><path d="M11.7,76.5c10.7,3.9,22.9,4.2,34.1,4.3c12,0.1,25-0.6,36.2-5.3c2.6-1.1,5.6-2.4,7.2-4.9c4.1-6.5-2.5-9.6-7.2-12.2   c-3.3-1.8-5.7,3.4-2.1,4.9c1.6,0.7,4.8,1.2,5.9,2.7c0.9,1.3,0,2.6-0.9,3.3c-1.9,1.5-4.3,2.3-6.6,3.1c-9.8,3.2-20.6,4-30.9,4   c-10.2,0-20.9-0.3-30.8-2.9c-3.6-1-8.5-2.5-10.8-5.4c0,0-1.3-1.4-0.3-2.7c0.9-1.1,2.4-1.8,3.6-2.4c2.3-1.2,4.7-1.8,7.1-2.7   c-0.3,2.2-0.4,4.6,0.4,6.6c2.3,5.6,8.8,5.4,13.3,2.9c2.4,2.5,4.9,4.4,8.7,4.5c2.8,0.1,5.9-0.7,8-2.5c2.3,1.7,4.9,2.8,7.8,2.6   c1.8-0.1,3.7-0.8,5.2-1.7c1.4-0.8,2.7-3,4.2-3.3c1.2-0.2,2.8,1,4,1.2c0.7,0.2,1.5,0.2,2.3,0.2c1.6-0.1,3.1-0.8,4.3-1.9   c2.9-2.6,2-6.2,1.2-9.6c-2.8-10.7-4.9-21.6-8.3-32.2c-1.2-3.6-2.2-8-6.1-9.6c-2.5-1-5.2-0.8-7.4,0.4c-4.8-3.6-11.4-3-15.6,1.1   c-1.8-1.5-3.9-2.7-6.5-2.1c-2.8,0.7-4.8,3-5.9,5.5c-1.6,3.4-2.2,7.4-3.1,11.1c-1,4-2.1,8.1-3.1,12.1s-2.2,7.9-3,11.9   c-6.2-0.4-18.1,3.2-15.7,10.8C2.7,72.7,7.8,75,11.7,76.5z M21.2,59.9c0.8-5,2.3-9.9,3.6-14.8c1.3-5,2.6-10,3.9-15   c0.5-2,0.9-4.3,1.9-6.2c1.5-2.8,3.8-2.8,6.2-1.8c0.2,1.6,2.8,2.6,4.1,0.8c2.8-4,8.5-4.2,11.8-0.8c0.8,0.8,2.2,0.8,3,0   c1.1-1,2.6-1.4,3.9-0.9c1.8,0.7,2.2,2.5,2.7,4.1c1.1,3.5,2,7.1,3.1,10.7c2.1,7.3,4.6,14.5,7.1,21.6c0.5,1.4,1.6,3.3,1.6,4.8   c0,2.3-1.4,4-3.7,4.2c-2.6,0.2-4.8-1.9-7.5-1.1c-2.4,0.7-3.9,3.2-6.3,4.1c-3.1,1.2-5.9-0.2-8.1-2.4c-1-1-2.7-0.8-3.4,0.4   c-1.2,2-4.6,2.5-6.7,2.2c-2.8-0.4-4.3-2.5-6-4.5c-0.6-0.7-1.9-0.9-2.6-0.3c-2,1.5-5,3-7.4,1.3C20.3,64.9,20.9,62,21.2,59.9z"/><path d="M23.7,14.5c-1.3,1.1-3.1,3-2.6,4.8c0.1,0.4,0.7,0.8,1.1,0.6c1.3-0.5,2.1-1.9,3.2-2.8c1.3-1.1,2.7-1.3,4.2-1.9   c1.6-0.6,1.5-3.2-0.4-3.2C27.3,12,25.2,13.3,23.7,14.5z"/><path d="M61.9,12c-1.2,0.1-1.5,1.8-0.3,2.2c1.3,0.4,2.7,1.1,3.7,2.1c1.1,1,1.7,2.3,2.9,3.1c1,0.7,2.8-0.2,2.7-1.5   C70.5,13.9,65.4,11.9,61.9,12z"/></g><text x="0" y="106" fill="#000000" font-size="5px" font-weight="bold" font-family="'Helvetica Neue', Helvetica, Arial-Unicode, Arial, Sans-serif">Created by BomSymbols</text><text x="0" y="111" fill="#000000" font-size="5px" font-weight="bold" font-family="'Helvetica Neue', Helvetica, Arial-Unicode, Arial, Sans-serif">from the Noun Project</text></svg>