<svg xmlns="http://www.w3.org/2000/svg" xmlns:xlink="http://www.w3.org/1999/xlink" version="1.1" x="0px" y="0px" viewBox="0 0 100 125" enable-background="new 0 0 100 100" xml:space="preserve"><g display="none"><path display="inline" d="M41.786,32c9.847-0.264,18.249-5.258,20.513-8.766s1.85-4.925,17.044-8.082   c16.546-3.438,15.644-8.646,13.5-10.636c-2.397-2.224-9.205,4.972-14.857,7.214s-15.762,4.933-15.762,4.933   c-5.62,0.206-6.988,2.772-12.029,4.772c-6.966,2.764-11.84,2.058-11.84,2.058l0.452,1.14c0,0,4.829,0.724,11.84-2.058l0.905,2.281   c0,0-6.634,3.022-11.84,2.058l0.452,1.14c0,0,3.736,1.102,11.84-2.058l0.905,2.281c0,0-4.439,2.442-11.576,2.581L41.786,32z"/><path display="inline" fill="none" stroke="#000000" stroke-miterlimit="10" d="M46.472,21.665c0,0,2.163-2.005,3.517,1.223   C51.343,26.115,49.509,35.91,48,36s-2.331-4.79-5.045-3.332s-6.911,5.795,1.172,6.113s5.39-4.267,10.55-3.668   c5.159,0.6,5.129,4.924,0,7.335c-5.129,2.411-18.946,16.179-22.272,17.115s-6.165-2.868-4.689-7.335s6.163-2.534,10.55-1.223   c5.528,1.652,14.381,6.605,24.616,4.89c9.095-1.524,3.868-12.479-2.344-11.003s-6.288,4.318-12.894,8.558s-10.55,1.223-10.55,1.223   s-5.604-0.68-2.866-5.676c1.762-3.215,6.706-0.659,11.069,1.528c2.416,1.212,5.174,2.176,8.209,1.703   c8.514-1.329,5.375-10.018-1.172-9.78s-4.333,0.486-10.55,1.223s-4.431-4.116-3.517-6.113c0.915-1.996,5.078-3.668,5.078-3.668   c3.967-3.457,3.45-12.225,0-12.225c-0.488,0-3.861,0.747-2.344,7.335c1.875,5.318,2.392,3.228,8,5"/><g display="inline"><path d="M94.053,62.114c0,0-0.019,0.183-0.056,0.537c-0.129,0.559-0.396,1.255-0.927,1.847c-1.045,1.254-2.887,2.385-5.295,3.367    c-4.829,1.977-11.983,3.557-20.641,4.523c-4.328,0.503-9.039,0.774-14.021,0.866c-4.993,0.116-10.231-0.08-15.662-0.471    c-5.419-0.428-11.023-1.032-16.638-2.257c-2.806-0.61-5.621-1.344-8.384-2.394c-1.378-0.54-2.75-1.139-4.054-1.99    c-0.65-0.427-1.285-0.925-1.854-1.56L6.119,64.06c-0.12-0.194-0.229-0.403-0.337-0.607c-0.096-0.216-0.163-0.46-0.235-0.691    c-0.03-0.119-0.036-0.249-0.051-0.374L5.477,62.2l-0.008-0.094c0-0.077-0.01,0.039-0.001-0.196    c0.027-0.186,0.037-0.341,0.078-0.551c0.074-0.26,0.16-0.549,0.268-0.774c0.113-0.199,0.226-0.403,0.349-0.591l0.41-0.505    c0.58-0.611,1.221-1.084,1.877-1.487c1.315-0.802,2.694-1.351,4.076-1.843c2.773-0.953,5.591-1.59,8.397-2.105    c5.618-0.997,11.187-1.586,16.588-1.887c5.4-0.324,10.63-0.32,15.58-0.263c4.956,0.07,9.633,0.354,13.948,0.689    c8.622,0.744,15.788,2.007,20.634,3.822c2.419,0.893,4.274,1.95,5.342,3.157c0.552,0.578,0.812,1.26,0.947,1.706    c0.084,0.477,0.097,0.732,0.097,0.732L94.053,62.114z M92.206,62.011c-0.051,0.001,0.147-0.416-0.547-1.285    c-0.687-0.861-2.293-1.928-4.563-2.844c-4.544-1.873-11.599-3.454-20.144-4.403c-4.275-0.497-8.94-0.766-13.872-0.857    c-4.937-0.115-10.144,0.08-15.509,0.467c-5.359,0.423-10.9,1.022-16.398,2.225c-2.744,0.597-5.49,1.318-8.109,2.317    c-1.299,0.509-2.584,1.08-3.701,1.815c-1.099,0.752-2.101,1.612-2.056,2.667c0.014-0.191,0.009-0.03,0.014-0.062l0.007,0.04    l0.012,0.079c0.01,0.053,0.005,0.106,0.022,0.159c0.05,0.107,0.074,0.214,0.126,0.324l0.199,0.329l0.269,0.324    c0.409,0.421,0.919,0.809,1.482,1.151c1.128,0.686,2.42,1.209,3.723,1.669c2.628,0.901,5.377,1.526,8.122,2.028    c5.502,0.974,11.007,1.558,16.348,1.856c5.335,0.32,10.533,0.316,15.427,0.259c4.907-0.069,9.536-0.35,13.798-0.681    c8.508-0.727,15.575-1.992,20.136-3.703c2.281-0.826,3.899-1.82,4.609-2.634c0.084-0.101,0.164-0.196,0.238-0.285    c0.053-0.091,0.103-0.176,0.149-0.254c0.103-0.164,0.082-0.211,0.149-0.291c0.047-0.337,0.071-0.511,0.071-0.511L92.206,62.011z"/></g><g display="inline"><path d="M8.946,65.371c0,0,0.307,0.211,0.842,0.627c0.533,0.425,1.319,1.041,2.244,1.919c0.904,0.891,2.036,1.991,2.867,3.646    c0.201,0.283,0.436,0.786,0.732,1.056c0.297,0.299,0.57,0.623,0.971,0.9c0.186,0.145,0.374,0.292,0.564,0.441    c0.201,0.136,0.418,0.26,0.629,0.393c0.419,0.273,0.864,0.528,1.345,0.752c1.883,0.946,4.057,1.74,6.411,2.38    c2.359,0.629,4.883,1.167,7.523,1.566c2.641,0.39,5.386,0.694,8.186,0.872c2.797,0.219,5.651,0.269,8.501,0.288    c2.859-0.018,5.711-0.069,8.501-0.288c2.8-0.178,5.545-0.482,8.186-0.872c2.64-0.399,5.164-0.936,7.523-1.566    c2.355-0.64,4.528-1.434,6.411-2.38c1.861-0.957,3.497-2.084,4.246-3.553c0.82-1.632,1.96-2.749,2.861-3.635    c0.925-0.878,1.711-1.495,2.244-1.919c0.538-0.418,0.843-0.628,0.843-0.628l0.422,0.619c0,0-0.289,0.192-0.82,0.591    c-0.529,0.4-1.3,1.002-2.188,1.861c-0.872,0.865-1.952,1.94-2.696,3.456c-0.832,1.711-2.595,2.962-4.495,4.001    c-1.936,1.034-4.146,1.901-6.532,2.615c-2.389,0.701-4.944,1.316-7.615,1.781c-2.672,0.448-5.447,0.853-8.284,1.055    c-2.841,0.245-5.73,0.32-8.609,0.362c-2.887-0.042-5.774-0.117-8.609-0.362c-2.837-0.201-5.612-0.606-8.284-1.055    c-2.671-0.465-5.225-1.08-7.615-1.781c-2.386-0.714-4.595-1.58-6.532-2.615c-0.491-0.244-0.952-0.524-1.39-0.824    c-0.22-0.146-0.443-0.282-0.654-0.433c-0.202-0.166-0.402-0.329-0.599-0.491c-0.405-0.294-0.753-0.701-1.09-1.081    c-0.188-0.186-0.296-0.384-0.411-0.577c-0.122-0.209-0.217-0.347-0.357-0.607c-0.733-1.493-1.821-2.585-2.69-3.444    c-0.888-0.86-1.66-1.462-2.188-1.861c-0.533-0.401-0.821-0.593-0.821-0.593L8.946,65.371z"/></g><path display="inline" fill="none" stroke="#000000" stroke-miterlimit="10" d="M72.033,57.121c0,0,11.722-1.589,11.722,4.89   s-20.493,8.019-32.822,1.223s-20.585-12.46-23.444-7.335c-3.913,7.012,2.711,9.178,9.378,8.558   C43.533,63.836,65.276,58.501,72.033,57.121"/><path display="inline" fill="none" stroke="#000000" stroke-miterlimit="10" d="M19.283,54.587   c4.531-3.581,11.115,0.539,23.444,7.335s32.822,6.48,32.822,0c0-4.931-4.592-6.113-11.722-6.113s-22.821,5.397-29.305,3.576   s-16.411-8.965-16.411-2.445s17.583,4.89,17.583,4.89c14.269-1.926,12.852-2.503,21.1-3.487s20.996,7.193,22.272-2.445   c1.276-9.638-9.706-5.427-16.411-2.445c-6.705,2.982-36.194,11.289-31.65-4.89s13.929-7.344,21.1-3.668s20.329,8.712,16.411,1.223   s1.19-5.793-12.894-7.335c-14.085-1.542-10.161-4.89-10.161-4.89c3.967-3.457,3.45-12.225,0-12.225   c-0.488,0-3.861,0.747-2.344,7.335C44.633,35.591,40.125,47.268,46,47s16.636,4.535,6,7s-2.146-13-9-13s-10.927,8.659-2,10   s10.437-14.412,15.794-14.662c5.357-0.25,9.069,4.249,7.033,9.78c-2.036,5.531-11.112,1.325-17.583-1.223   S34.82,41.54,28.661,43.674s-8.862,16.119,8.205,15.893s20.885-11.003,30.477-11.003c3.888,0,7.033,3.281,7.033,7.335   c0,3.379-1.796,6.113-5.861,6.113c-13.231-0.026-19.852,6.113-28.133,6.113c0,0-14.067,1.629-14.067-4.89s9.927,0.623,16.411,2.445   c6.484,1.822,9.403,4.656,24.616,1.223"/><g display="inline"><path d="M43.966,58.5c0,0.363,0.242,0.752,0.193,1.101c-0.051,0.358,0.053,0.795-0.047,1.135    c-0.101,0.345-0.887,0.446-1.035,0.769c-0.149,0.326,0.011,0.808-0.182,1.107c-0.194,0.301-0.736,0.322-0.969,0.591    c-0.234,0.27,0.005,1.021-0.265,1.255c-0.269,0.233-0.974-0.101-1.274,0.092c-0.299,0.193-0.358,0.816-0.684,0.965    c-0.323,0.148-0.631,0.471-0.976,0.572c-0.339,0.099-0.817-0.312-1.174-0.261c-0.349,0.05-0.691,0.602-1.054,0.602    c-0.363,0-0.73-0.381-1.078-0.43c-0.358-0.051-0.818,0.211-1.157,0.112c-0.345-0.101-0.511-0.744-0.834-0.892    c-0.326-0.149-0.579-0.385-0.878-0.577c-0.301-0.194-0.469-0.501-0.738-0.735c-0.27-0.234-0.619-0.339-0.853-0.609    c-0.233-0.269-0.883-0.246-1.076-0.547c-0.193-0.299-0.156-0.765-0.305-1.091c-0.148-0.323,0.202-0.812,0.101-1.158    c-0.099-0.339-0.805-0.542-0.856-0.899c-0.05-0.349,0.108-0.741,0.108-1.103c0-0.363,0.508-0.66,0.558-1.009    c0.051-0.358-0.475-0.821-0.376-1.161c0.101-0.345,0.407-0.629,0.554-0.951c0.149-0.326,0.524-0.511,0.716-0.81    c0.194-0.301,0.195-0.728,0.429-0.997c0.234-0.27,0.796-0.171,1.066-0.405c0.269-0.233,0.085-1.061,0.386-1.255    c0.299-0.193,0.911,0.174,1.237,0.025c0.323-0.148,0.627-0.229,0.972-0.33c0.339-0.099,0.624-0.308,0.981-0.359    c0.349-0.05,0.681-0.559,1.043-0.559c0.363,0,0.716,0.356,1.065,0.406c0.358,0.051,0.797-0.19,1.137-0.09    c0.345,0.101,0.443,0.851,0.766,0.999c0.326,0.149,0.636,0.232,0.935,0.424c0.301,0.194,1.005-0.135,1.275,0.099    c0.27,0.234,0.419,0.653,0.653,0.923c0.233,0.269,0.645,0.464,0.839,0.765c0.193,0.299-0.249,0.96-0.1,1.286    c0.148,0.323,0.394,0.58,0.495,0.925c0.099,0.339,0.703,0.593,0.754,0.951C44.369,57.725,43.966,58.138,43.966,58.5z"/></g><g display="inline"><path d="M77.978,61c0,0.334,0.145,0.691,0.082,1.007c-0.064,0.325-0.049,0.719-0.173,1.018c-0.126,0.304-0.697,0.383-0.879,0.654    c-0.183,0.273-0.193,0.675-0.424,0.906c-0.231,0.231-0.652,0.214-0.924,0.397c-0.27,0.181-0.343,0.749-0.648,0.875    c-0.299,0.124-0.751-0.218-1.076-0.154C73.62,65.765,73.334,66.14,73,66.14c-0.334,0-0.713,0.092-1.028,0.03    c-0.325-0.064-0.561-0.487-0.861-0.611c-0.304-0.126-0.778,0.017-1.049-0.164c-0.273-0.183-0.402-0.594-0.633-0.825    c-0.231-0.231-0.643-0.361-0.825-0.633c-0.181-0.27-0.027-0.748-0.153-1.053c-0.124-0.299-0.16-0.609-0.224-0.935    c-0.062-0.316,0.004-0.616,0.004-0.95c0-0.334-0.085-0.638-0.022-0.954c0.064-0.325-0.176-0.754-0.051-1.053    c0.126-0.304,0.446-0.54,0.627-0.811c0.183-0.273,0.636-0.301,0.867-0.532c0.231-0.231,0.205-0.766,0.477-0.949    c0.27-0.181,0.636-0.237,0.941-0.364c0.299-0.124,0.684,0.096,1.009,0.031c0.316-0.062,0.588-0.5,0.922-0.5    c0.334,0,0.661,0.158,0.977,0.22c0.325,0.064,0.579,0.309,0.878,0.433c0.304,0.126,0.662,0.126,0.932,0.307    c0.273,0.183,0.308,0.614,0.539,0.845c0.231,0.231,0.832,0.153,1.014,0.426c0.181,0.27-0.023,0.755,0.103,1.06    c0.124,0.299,0.189,0.581,0.253,0.906C77.759,60.381,77.978,60.666,77.978,61z"/></g><g display="inline"><path d="M64.978,51c0,0.334,0.145,0.691,0.082,1.007c-0.064,0.325-0.049,0.719-0.173,1.018c-0.126,0.304-0.697,0.383-0.879,0.654    c-0.183,0.273-0.193,0.675-0.424,0.906c-0.231,0.231-0.652,0.214-0.924,0.397c-0.27,0.181-0.343,0.749-0.648,0.875    c-0.299,0.124-0.751-0.218-1.076-0.154C60.62,55.765,60.334,56.14,60,56.14c-0.334,0-0.713,0.092-1.028,0.03    c-0.325-0.064-0.561-0.487-0.861-0.611c-0.304-0.126-0.778,0.017-1.049-0.164c-0.273-0.183-0.402-0.594-0.633-0.825    c-0.231-0.231-0.643-0.361-0.825-0.633c-0.181-0.27-0.027-0.748-0.153-1.053c-0.124-0.299-0.16-0.609-0.224-0.935    c-0.062-0.316,0.004-0.616,0.004-0.95c0-0.334-0.085-0.638-0.022-0.954c0.064-0.325-0.176-0.754-0.051-1.053    c0.126-0.304,0.446-0.54,0.627-0.811c0.183-0.273,0.636-0.301,0.867-0.532c0.231-0.231,0.205-0.766,0.477-0.949    c0.27-0.181,0.636-0.237,0.941-0.364c0.299-0.124,0.684,0.096,1.009,0.031c0.316-0.062,0.588-0.5,0.922-0.5    c0.334,0,0.661,0.158,0.977,0.22c0.325,0.064,0.579,0.309,0.878,0.433c0.304,0.126,0.662,0.126,0.932,0.307    c0.273,0.183,0.308,0.614,0.539,0.845c0.231,0.231,0.832,0.153,1.014,0.426c0.181,0.27-0.023,0.755,0.103,1.06    c0.124,0.299,0.189,0.581,0.253,0.906C64.759,50.381,64.978,50.666,64.978,51z"/></g><path display="inline" fill="none" stroke="#000000" stroke-miterlimit="10" d="M34,64c0,0-19,4.721-19-3s12.564-2.429,20-1   s38,8.727,38,0s-41,1-41,1"/></g><g><path d="M93.962,61.279c-0.135-0.446-0.395-1.129-0.947-1.706c-1.068-1.207-2.922-2.264-5.342-3.157   c-2.21-0.828-4.923-1.535-8.015-2.136c-0.038-1.781-0.597-3.095-1.683-3.907c-1.433-1.07-3.596-1.147-6.042-0.682   c-0.659-0.528-1.403-0.946-2.209-1.226c0.022-0.698-0.233-1.56-0.766-2.578c-0.966-1.845-1.366-3.105-1.659-4.025   c-0.616-1.937-0.953-2.403-3.571-2.751c-0.062-0.095-0.128-0.188-0.194-0.28c-1.274-1.739-3.269-2.776-5.576-2.964   c-0.748-0.646-1.846-1.091-3.224-1.251c-2.576-0.3-3.472,0.662-4.331,1.592c-0.31,0.337-0.635,0.688-1.07,1.005   c-3.031-0.795-3.708-1.64-3.843-2.063c-0.108-0.342,0.083-0.634,0.206-0.78c0.086,0.125,0.17,0.245,0.26,0.382   c0.612,0.926,1.214,1.802,2.072,1.747c0.378-0.022,0.715-0.279,1.029-0.784c0.602-0.967,1.177-2.987,1.534-5.206   c5.763-1.803,10.163-4.883,11.706-7.275c2.263-3.508,1.85-4.925,17.044-8.082c16.546-3.438,15.644-8.646,13.5-10.636   c-2.397-2.224-9.205,4.972-14.857,7.214s-15.762,4.933-15.762,4.933c-5.62,0.206-6.988,2.772-12.029,4.772   c-0.133,0.053-0.26,0.096-0.392,0.146c-0.403-0.524-0.867-0.87-1.405-0.986c-1.143-0.248-2.112,0.565-2.243,0.681   c-0.223-0.067-0.453-0.11-0.695-0.11c-0.218,0-0.592,0.072-1.009,0.273c-0.342-0.177-0.711-0.276-1.108-0.276   c-0.422,0-1.425,0.258-2.203,1.236c-0.269,0.338-0.482,0.727-0.646,1.163c-1.363,0.039-2.141-0.07-2.141-0.07l0.453,1.14   c0,0,0.5,0.073,1.404,0.083c-0.103,0.673-0.126,1.42-0.047,2.26c-0.15-0.021-0.303-0.034-0.451-0.062l0.452,1.141   c0,0,0.054,0.015,0.148,0.035c0.059,0.347,0.13,0.704,0.216,1.076c0.448,1.271,0.831,2.148,1.232,2.769L41.786,32   c0.005,0,0.01-0.001,0.015-0.001c0.133,0.2,0.269,0.374,0.409,0.523c-1.217,0.758-2.644,2.003-3.125,3.275   c-0.555,0.474-1.02,0.998-1.273,1.552c-0.266,0.58-0.473,1.122-0.633,1.635c-0.143,0.045-0.286,0.086-0.427,0.143   c-1.318,0.528-2.475,1.507-3.48,2.956c-1.528,0.179-3.106,0.542-4.774,1.119c-3.362,1.165-5.629,5.436-4.947,9.325   c0.013,0.076,0.028,0.156,0.046,0.238c-1.585-0.077-2.972,0.275-4.233,1.143c-0.207,0.066-0.399,0.156-0.576,0.27   c-0.169,0.109-0.311,0.247-0.444,0.396c-1.948,0.422-3.893,0.925-5.816,1.586c-1.382,0.492-2.761,1.041-4.076,1.843   c-0.656,0.402-1.297,0.875-1.877,1.487l-0.41,0.505c-0.123,0.188-0.236,0.392-0.349,0.591c-0.108,0.225-0.193,0.514-0.268,0.774   c-0.041,0.211-0.051,0.366-0.078,0.551c-0.009,0.236,0.001,0.119,0.001,0.196L5.477,62.2l0.018,0.189   c0.016,0.125,0.021,0.255,0.051,0.374c0.073,0.231,0.139,0.475,0.235,0.691c0.109,0.203,0.217,0.413,0.337,0.607l0.401,0.522   c0.569,0.635,1.204,1.133,1.854,1.56c0.495,0.323,1.002,0.601,1.513,0.862c0.464,0.368,1.022,0.837,1.643,1.438   c0.869,0.86,1.958,1.952,2.69,3.444c0.14,0.26,0.235,0.398,0.357,0.607c0.114,0.194,0.223,0.391,0.411,0.578   c0.337,0.38,0.685,0.787,1.09,1.081c0.197,0.162,0.397,0.325,0.599,0.491c0.211,0.15,0.433,0.286,0.654,0.433   c0.438,0.3,0.9,0.58,1.39,0.824c1.936,1.034,4.146,1.901,6.532,2.615c2.389,0.701,4.944,1.316,7.615,1.781   c2.672,0.448,5.447,0.853,8.284,1.055c2.834,0.245,5.722,0.32,8.609,0.362c2.878-0.042,5.768-0.117,8.609-0.362   c2.837-0.201,5.612-0.606,8.284-1.055c2.671-0.465,5.225-1.08,7.615-1.781c2.386-0.714,4.595-1.58,6.532-2.615   c1.9-1.04,3.663-2.29,4.495-4.001c0.744-1.516,1.825-2.591,2.696-3.456c0.605-0.585,1.148-1.043,1.605-1.407   c1.521-0.774,2.712-1.622,3.475-2.538c0.531-0.591,0.798-1.288,0.927-1.847c0.037-0.354,0.056-0.537,0.056-0.537l0.006-0.102   C94.059,62.011,94.046,61.756,93.962,61.279z M78.392,56.712c-1.159-0.197-2.324-0.263-3.346-0.264   c-0.065-0.029-0.129-0.058-0.196-0.084c0.007-0.156,0.026-0.304,0.026-0.464c0-0.446-0.043-0.881-0.112-1.306   c1.344,0.238,2.631,0.493,3.852,0.763c-0.015,0.158-0.025,0.312-0.047,0.478C78.528,56.151,78.461,56.432,78.392,56.712z    M17.689,57.691c0.158,0.794,0.568,1.503,1.234,2.111c1.514,1.38,4.196,2.086,6.983,2.427c-0.06,0.305-0.09,0.64-0.09,1.005   c0,0.557,0.11,1.07,0.293,1.552c-3.592,0.32-7.485,0.217-9.425-1.301C15.888,62.862,15.5,62.049,15.5,61   c0-1.283,0.365-2.188,1.117-2.769C16.92,57.997,17.281,57.821,17.689,57.691z M36.381,46.53c0.077-1.028,0.636-2.107,1.544-3   c0.848,0.627,2.154,0.847,3.917,0.637c0.223-0.026,0.423-0.052,0.625-0.077c0.009,0.003,0.018,0.005,0.027,0.007   c0.155,1.059,0.477,1.927,1.061,2.536c0.509,0.53,1.187,0.82,2.019,0.865c0.001,0.362,0.014,0.719,0.022,1.079   c-0.378,0.319-0.759,0.642-1.141,0.967c-2.847-1.417-5.836-2.789-8.055-2.535C36.388,46.851,36.368,46.696,36.381,46.53z    M37.986,39.801c1.403-0.303,2.903-0.061,4.452,0.498c-0.005,0.074-0.009,0.146-0.013,0.219c-1.709,0.111-3.207,0.712-4.379,1.579   c-0.013-0.002-0.027-0.002-0.041-0.004C37.752,41.537,37.748,40.763,37.986,39.801z M43.384,41.52   c0.84,0.092,1.354,0.507,1.672,1.188c-0.446,0.076-0.981,0.159-1.656,0.252C43.378,42.506,43.37,42.029,43.384,41.52z    M57.53,36.839c0.252,0.282,0.424,0.599,0.482,0.951c0.039,0.241,0.017,0.488-0.033,0.738c-0.708-0.071-1.463-0.15-2.302-0.241   c-0.388-0.042-0.761-0.086-1.119-0.131c0.703-0.782,1.444-1.28,2.26-1.318C57.059,36.827,57.295,36.83,57.53,36.839z    M55.567,39.281c0.731,0.08,1.394,0.149,2.025,0.213c-0.568,0.918-1.657,1.81-3.128,2.501c-0.082,0.039-0.167,0.081-0.253,0.125   c-0.593-0.134-1.224-0.195-1.897-0.171c-0.081,0.003-0.153,0.006-0.232,0.009c0.581-1.051,1.156-2.054,1.75-2.886   C54.386,39.145,54.964,39.214,55.567,39.281z M58.823,45.916c0.547-0.196,1.15-0.375,1.831-0.536   c0.931-0.221,1.896-0.122,2.806,0.245c-0.035,0.107-0.063,0.213-0.102,0.321c-0.134,0.364-0.313,0.669-0.516,0.946   C62.034,46.332,61.057,46,60,46c-0.382,0-0.75,0.051-1.107,0.132C58.868,46.06,58.852,45.987,58.823,45.916z M73.877,55.899   c0,0.056-0.006,0.128-0.007,0.189C73.586,56.038,73.298,56,73,56c-0.465,0-0.907,0.084-1.334,0.203   c-1.646-0.546-3.635-0.773-5.75-0.852c0.857-0.53,1.394-1.169,1.742-1.79c2.122,0.247,4.148,0.533,6.063,0.852   C73.823,54.892,73.877,55.389,73.877,55.899z M53.861,65.151c0.364,0.148,0.722,0.303,1.094,0.44   c-0.499-0.093-0.998-0.195-1.497-0.304C53.59,65.241,53.728,65.196,53.861,65.151z M26.957,58.533   c0.489,0.12,0.978,0.245,1.465,0.371c0.204,0.209,0.419,0.396,0.646,0.555c0.028,0.216,0.061,0.429,0.106,0.639   c-0.173-0.016-0.358-0.049-0.52-0.049c-0.646,0-1.208,0.128-1.663,0.423c-0.023,0.015-0.039,0.036-0.061,0.051   C26.783,59.927,26.79,59.264,26.957,58.533z M41.314,51.536c0.26,0.026,0.514,0.041,0.762,0.041   c-0.065,0.056-0.131,0.112-0.196,0.168C41.684,51.671,41.505,51.608,41.314,51.536z M43.903,51.329   c0.372-0.105,0.73-0.242,1.073-0.406l0.098,0.049c0.246,0.123,0.511,0.251,0.787,0.379c0.04,0.186,0.094,0.362,0.147,0.538   c-0.932,0.009-1.876,0.031-2.822,0.054C43.425,51.738,43.664,51.534,43.903,51.329z M45.566,46.496   c-0.547-0.04-0.971-0.223-1.29-0.556c-0.339-0.353-0.562-0.864-0.702-1.495c0.642,0.217,1.29,0.454,1.952,0.708   C45.55,45.57,45.562,46.019,45.566,46.496z M45.422,44.044c-0.251-0.094-0.494-0.172-0.742-0.261   c0.248-0.039,0.468-0.076,0.674-0.112C45.378,43.793,45.403,43.913,45.422,44.044z M45.694,41.812   c0.347,0.189,0.695,0.389,1.043,0.588c-0.175,0.032-0.351,0.065-0.537,0.1c-0.049,0.009-0.103,0.019-0.154,0.029   C45.947,42.273,45.835,42.029,45.694,41.812z M46.387,43.482c0.587-0.112,1.059-0.201,1.734-0.278   c0.14,0.083,0.282,0.165,0.422,0.248c0.401,0.238,0.796,0.471,1.184,0.697c-0.25,0.437-0.507,0.869-0.771,1.292   c-0.303-0.121-0.603-0.241-0.897-0.36c-0.541-0.217-1.071-0.43-1.585-0.632c-0.034-0.33-0.087-0.647-0.15-0.954   C46.344,43.491,46.366,43.486,46.387,43.482z M52.352,42.947c0.154-0.006,0.307-0.007,0.459-0.001   c-0.444,0.29-0.925,0.63-1.424,0.993c-0.102-0.056-0.2-0.106-0.303-0.164c0.148-0.267,0.292-0.532,0.437-0.796   C51.782,42.969,52.055,42.958,52.352,42.947z M51.877,45.341c0.167,0.086,1.402,0.714,3.148,1.504   c-0.237,0.179-0.468,0.366-0.695,0.557c-1.319-0.405-2.674-0.904-3.994-1.417c0.387-0.303,0.764-0.593,1.129-0.866   C51.602,45.191,51.741,45.271,51.877,45.341z M27.442,61.376c0.029-0.023,0.06-0.045,0.092-0.065   c0.453-0.293,1.124-0.334,1.941-0.203c0.047,0.127,0.092,0.254,0.146,0.377C28.91,61.465,28.182,61.434,27.442,61.376z    M27.988,56.049c0.212-0.358,0.453-0.659,0.731-0.896c0.287,0.119,0.589,0.255,0.888,0.388c-0.168,0.39-0.298,0.8-0.398,1.221   c-0.229-0.103-0.458-0.204-0.686-0.307c-0.162-0.073-0.32-0.143-0.481-0.215C28.025,56.177,28.005,56.115,27.988,56.049z    M47.99,46.585c-0.492-0.052-0.976-0.091-1.422-0.095c-0.003-0.312-0.009-0.626-0.021-0.937c0.373,0.148,0.753,0.301,1.139,0.456   c0.225,0.09,0.452,0.181,0.679,0.273C48.24,46.383,48.116,46.482,47.99,46.585z M49.43,46.705c0.138,0.054,0.276,0.109,0.415,0.163   c-0.167-0.034-0.333-0.066-0.5-0.095C49.374,46.75,49.401,46.728,49.43,46.705z M46.646,49.84c0.734-0.614,1.398-1.358,2.013-2.177   c1.43,0.217,2.887,0.621,4.126,1.116c-0.925,0.848-1.938,1.771-3.303,2.793c-0.988-0.223-1.898-0.56-2.733-0.923   C46.707,50.386,46.669,50.121,46.646,49.84z M49.725,52.636c1.199,0.226,2.503,0.297,3.857,0.086   c0.137-0.021,0.263-0.05,0.395-0.075c0.184,0.004,0.365,0.011,0.549,0.015c-0.676,0.31-1.559,0.6-2.639,0.85   c-1.475,0.341-2.586,0.326-3.399-0.021C48.925,53.2,49.343,52.913,49.725,52.636z M56.967,54.95   c-0.639,0.192-1.301,0.381-1.987,0.566c-0.436-0.055-0.863-0.127-1.291-0.198c0.78-0.466,1.53-0.939,2.258-1.411   C56.232,54.305,56.579,54.651,56.967,54.95z M52.075,56.242c0.086-0.047,0.167-0.095,0.252-0.142   c0.065,0.013,0.134,0.021,0.199,0.034C52.375,56.169,52.228,56.207,52.075,56.242z M52.175,55.033   c-0.473-0.1-0.942-0.204-1.402-0.318c0.421-0.045,0.864-0.117,1.341-0.228c0.717-0.167,1.356-0.348,1.916-0.545   C53.434,54.312,52.812,54.676,52.175,55.033z M50.82,55.758c-0.919,0.466-1.882,0.911-2.922,1.31   c-1.331,0.22-2.662,0.391-3.961,0.506c-0.074-0.597-0.219-1.169-0.424-1.714c0.979-0.254,2.043-0.649,3.208-1.281   C48.017,55.011,49.391,55.413,50.82,55.758z M43.102,54.94c-0.357-0.66-0.81-1.259-1.34-1.781c0.106-0.091,0.209-0.178,0.316-0.269   c0.044,0.017,0.089,0.034,0.134,0.051c0.997,0.379,2.062,0.785,3.19,1.184C44.574,54.512,43.811,54.767,43.102,54.94z    M43.872,59.852c0.112,0.063,0.226,0.127,0.338,0.19c-0.131,0.023-0.251,0.044-0.388,0.068   C43.841,60.024,43.856,59.938,43.872,59.852z M58.476,55.738c-0.234-0.001-0.464-0.013-0.696-0.019   c0.107-0.033,0.213-0.065,0.318-0.098C58.218,55.67,58.35,55.698,58.476,55.738z M55.412,49.018   c-0.233-0.162-0.482-0.319-0.752-0.468c0.295,0.085,0.588,0.164,0.877,0.238C55.498,48.866,55.447,48.937,55.412,49.018z    M55.099,50.016C55.036,50.334,55,50.663,55,51c0,0.113,0.026,0.219,0.033,0.331c-0.49,0.167-1.015,0.311-1.606,0.403   c-0.898,0.141-1.77,0.146-2.598,0.061c1.074-0.852,1.926-1.633,2.719-2.36c0.079-0.073,0.155-0.142,0.233-0.213   C54.296,49.475,54.742,49.743,55.099,50.016z M47.135,51.884c-0.027,0-0.055,0-0.082,0c-0.005-0.014-0.013-0.025-0.019-0.039   C47.067,51.858,47.101,51.871,47.135,51.884z M47.992,52.618c-0.119,0.08-0.237,0.159-0.36,0.24   c-0.067-0.077-0.146-0.142-0.204-0.229C47.616,52.626,47.805,52.621,47.992,52.618z M46.762,53.403   c-0.047,0.028-0.095,0.06-0.142,0.086c-0.753-0.256-1.474-0.517-2.175-0.777c0.62-0.024,1.238-0.044,1.852-0.061   C46.427,52.922,46.58,53.174,46.762,53.403z M30.068,54.657c-0.075-0.033-0.149-0.067-0.223-0.099   c0.103-0.029,0.214-0.045,0.322-0.064C30.133,54.547,30.101,54.602,30.068,54.657z M43.499,61.177   c0.769-0.128,1.462-0.25,2.084-0.363c0.163,0.092,0.322,0.181,0.486,0.274c0.517,0.291,1.043,0.588,1.578,0.888   c-1.447-0.253-2.843-0.514-4.159-0.769C43.492,61.197,43.496,61.187,43.499,61.177z M47.11,60.525   c0.792-0.155,1.483-0.298,2.128-0.433c2.165-0.45,3.875-0.806,7.615-1.251c1.366-0.164,2.875-0.063,4.442,0.168   c-3.821,0.87-8.104,1.84-12.092,2.693C48.487,61.3,47.797,60.911,47.11,60.525z M56.734,57.847c-3.782,0.451-5.511,0.811-7.7,1.266   c-0.937,0.195-1.966,0.408-3.276,0.651c-0.169-0.095-0.341-0.192-0.508-0.286c2.26-0.388,4.622-0.873,6.961-1.356   c1.463-0.302,2.893-0.596,4.264-0.859c4.878-0.492,9.419-0.62,12.435,0.02c-1.485,0.33-3.222,0.724-5.115,1.155   C61.337,57.939,58.904,57.589,56.734,57.847z M68.782,58.336c-0.212,0.335-0.374,0.699-0.503,1.082   c-0.59-0.127-1.186-0.259-1.791-0.395c-0.127-0.028-0.254-0.057-0.381-0.085C67.063,58.722,67.957,58.52,68.782,58.336z    M63.146,55.329c-0.249,0.01-0.508,0.026-0.773,0.046c0.897-0.488,1.623-1.234,2.082-2.149c0.707,0.066,1.409,0.134,2.096,0.212   C65.866,54.367,64.709,55.008,63.146,55.329z M56.456,47.475c-0.126,0.126-0.229,0.273-0.341,0.413   c-0.202-0.048-0.405-0.096-0.61-0.151c0.188-0.146,0.379-0.287,0.576-0.424C56.204,47.366,56.33,47.421,56.456,47.475z    M50.217,43.277c-0.12-0.07-0.244-0.144-0.365-0.215c0.157-0.009,0.323-0.019,0.499-0.028   C50.306,43.115,50.262,43.196,50.217,43.277z M46.573,47.489c0.099,0.001,0.204,0.01,0.305,0.013   c-0.1,0.084-0.201,0.168-0.302,0.252C46.576,47.665,46.573,47.577,46.573,47.489z M28.593,54.034c-0.001,0-0.002-0.001-0.004-0.001   c0.003,0,0.005-0.001,0.008-0.001C28.596,54.033,28.594,54.034,28.593,54.034z M30.167,62.506c0.264,0.417,0.567,0.805,0.906,1.161   c-1.15-0.274-2.095-0.692-2.804-1.232C28.917,62.472,29.554,62.495,30.167,62.506z M42.818,62.53   c0.221,0.118,0.449,0.23,0.675,0.344c-0.361,0.07-0.716,0.138-1.062,0.203C42.569,62.901,42.698,62.719,42.818,62.53z    M45.032,62.522c0.041,0.008,0.08,0.015,0.121,0.023c-0.015,0.003-0.03,0.006-0.045,0.009   C45.084,62.542,45.057,62.533,45.032,62.522z M47.793,63.021c0.813,0.142,1.638,0.28,2.47,0.413   c0.144,0.08,0.283,0.158,0.428,0.238c0.58,0.32,1.188,0.611,1.802,0.894c-0.275,0.097-0.555,0.193-0.825,0.29   c-1.686-0.44-3.338-0.984-4.927-1.615C47.088,63.169,47.439,63.096,47.793,63.021z M53.454,63.907   c0.232,0.032,0.463,0.063,0.694,0.094c-0.087,0.029-0.176,0.058-0.263,0.087C53.742,64.027,53.596,63.97,53.454,63.907z    M50.571,62.463c-0.014-0.008-0.029-0.016-0.043-0.024c4.181-0.904,8.598-1.911,12.416-2.781c0.294-0.067,0.578-0.132,0.866-0.197   c0.82,0.169,1.643,0.355,2.459,0.538c0.604,0.136,1.2,0.268,1.792,0.395C68.036,60.595,68,60.792,68,61   c0,0.179,0.034,0.349,0.053,0.523c-4.516,0.041-8.259,0.785-11.564,1.747C54.533,63.053,52.533,62.773,50.571,62.463z    M68.26,62.516c0.086,0.268,0.19,0.524,0.318,0.77c-2.378,0.514-5.614,0.528-9.164,0.258C62.034,62.944,64.933,62.531,68.26,62.516   z M67.015,52.591c-0.287-0.022-0.588-0.042-0.878-0.064c0.336-0.133,0.674-0.263,1.014-0.389c-0.028,0.115-0.049,0.233-0.087,0.344   C67.05,52.52,67.029,52.554,67.015,52.591z M64.904,51.951C64.964,51.643,65,51.326,65,51c0-0.247-0.038-0.483-0.073-0.72   c0.848,0.151,1.625,0.214,2.303,0.177c0.028,0.196,0.038,0.389,0.042,0.582C66.48,51.326,65.689,51.629,64.904,51.951z    M67.911,49.102c0.16,0.015,0.322,0.023,0.479,0.05c-0.108,0.083-0.245,0.146-0.398,0.199   C67.968,49.267,67.94,49.184,67.911,49.102z M66.995,49.499c-0.556,0.009-1.223-0.062-1.983-0.205   c0.585-0.117,1.205-0.2,1.831-0.225C66.903,49.212,66.948,49.356,66.995,49.499z M64.273,48.439c-0.192-0.32-0.41-0.62-0.667-0.888   c0.279-0.367,0.514-0.782,0.689-1.259c0.025-0.067,0.042-0.134,0.065-0.201c0.451,0.289,0.879,0.642,1.267,1.072   c0.27,0.299,0.498,0.618,0.704,0.945C65.617,48.163,64.934,48.278,64.273,48.439z M57.348,46.776   c-0.079-0.033-0.156-0.063-0.234-0.096c0.25-0.136,0.508-0.269,0.786-0.393c0.021,0.054,0.033,0.108,0.052,0.162   C57.741,46.543,57.541,46.655,57.348,46.776z M55.981,46.185c-1.214-0.54-2.433-1.113-3.619-1.72c0.73-0.519,1.4-0.96,1.978-1.281   c1.363,0.393,2.434,1.227,3.094,2.216C56.901,45.643,56.425,45.906,55.981,46.185z M50.915,42.006   c-1.14,0.053-1.941,0.108-2.569,0.17c-1.575-0.927-3.216-1.861-4.861-2.532c0.01-0.131,0.023-0.27,0.033-0.402   c0.196,0.013,0.382,0.03,0.591,0.039c2.776,0.113,4.36-0.351,5.414-0.987c0.938,0.228,2.001,0.435,3.206,0.62   C52.107,39.842,51.515,40.909,50.915,42.006z M39.574,42.333c0.823-0.431,1.773-0.724,2.808-0.809   c-0.014,0.523-0.013,1.023,0.012,1.496C41.443,42.742,40.508,42.51,39.574,42.333z M43.626,50.25   c-0.057,0.049-0.114,0.097-0.171,0.146c-0.73,0.188-1.519,0.238-2.381,0.109c-2.318-0.348-3.85-1.233-4.434-2.499   C38.473,47.838,41.084,48.995,43.626,50.25z M37.297,50.186c-0.02-0.006-0.04-0.012-0.06-0.018   c-0.872-0.271-1.771-0.548-2.657-0.771c0.028-0.053,0.057-0.106,0.086-0.16c0.249-0.454,0.585-0.767,0.988-0.967   C35.961,49.021,36.529,49.662,37.297,50.186z M36.541,51.002C36.527,51.002,36.514,51,36.5,51c-0.885,0-1.731,0.161-2.52,0.443   c0.003-0.342,0.065-0.711,0.197-1.11C34.902,50.51,35.697,50.744,36.541,51.002z M33.012,51.863c-0.4,0.211-0.777,0.458-1.13,0.735   c-0.253,0.024-0.507,0.049-0.76,0.074c-0.125-0.809-0.1-1.714,0.079-2.716c0.104-0.006,0.204-0.017,0.313-0.017   c0.51,0,1.071,0.065,1.683,0.18C33,50.745,32.95,51.324,33.012,51.863z M30.115,52.77c-0.694,0.073-1.391,0.157-2.089,0.241   c0.05-0.207,0.094-0.412,0.165-0.627c0.408-1.234,1.067-1.918,1.964-2.231C30.015,51.1,30.001,51.973,30.115,52.77z M26.832,54.456   c-0.011,0.436,0.007,0.864,0.07,1.277c-0.377-0.166-0.752-0.331-1.119-0.485c-0.176-0.233-0.331-0.478-0.474-0.731   c0.392-0.066,0.783-0.113,1.176-0.174C26.599,54.379,26.716,54.418,26.832,54.456z M21.175,55.314   c0.409-0.089,0.819-0.154,1.228-0.237c0.851,0.242,1.793,0.593,2.783,1.005c0.317,0.389,0.695,0.773,1.137,1.142   c-0.014,0.038-0.032,0.077-0.046,0.115c-2.837-0.668-5.529-1.127-7.634-0.868c0.021-0.218,0.057-0.414,0.108-0.587   C19.557,55.682,20.366,55.49,21.175,55.314z M25.984,58.299c-0.253,1.091-0.207,2.073,0.127,2.946   c-2.64-0.309-5.155-0.943-6.515-2.183c-0.511-0.466-0.815-0.988-0.929-1.579C20.61,57.219,23.248,57.66,25.984,58.299z    M26.816,63.234c0-0.278,0.024-0.521,0.062-0.743c0.671,0.784,1.654,1.399,2.894,1.83c-0.814,0.131-1.704,0.257-2.632,0.36   C26.929,64.246,26.816,63.768,26.816,63.234z M32.261,64.895c0.134,0.018,0.273,0.031,0.411,0.046C33.793,65.609,35.099,66,36.5,66   c1.211,0,2.351-0.294,3.364-0.803c0.945,0.381,1.868,0.722,2.729,0.964c0.918,0.258,1.771,0.539,2.594,0.818   c-1.596,0.399-3.186,0.647-4.861,0.649c-0.091,0.01-9.108,1.017-12.383-1.899c-0.04-0.036-0.068-0.077-0.106-0.114   C29.568,65.404,31.124,65.124,32.261,64.895z M42.862,65.198c-0.61-0.171-1.263-0.404-1.929-0.658   c0.102-0.075,0.207-0.148,0.305-0.228c1.156-0.206,2.421-0.448,3.774-0.719c1.61,0.713,3.301,1.333,5.043,1.841   c-1.085,0.387-2.133,0.751-3.164,1.068c-0.275-0.093-0.552-0.187-0.829-0.282C45.055,65.876,44.015,65.521,42.862,65.198z    M51.249,66.068c0.164-0.059,0.329-0.118,0.494-0.177c3.169,0.796,6.407,1.246,9.453,1.405c0.249,0.048,0.497,0.1,0.746,0.143   c-6.654,1.048-10.246,0.522-13.416-0.416C49.427,66.722,50.331,66.397,51.249,66.068z M55.329,64.666   c0.402-0.128,0.807-0.255,1.222-0.377c4.862,0.525,9.442,0.641,12.604-0.128c0.47,0.571,1.054,1.037,1.73,1.355   c-2.469,0.732-5.8,1.019-9.462,0.838C59.343,65.949,57.286,65.388,55.329,64.666z M72.603,65.96C72.736,65.971,72.864,66,73,66   c2.761,0,5-2.239,5-5c0-0.437-0.074-0.854-0.179-1.258c0.534-0.493,0.948-1.116,1.245-1.876c1.138,0.268,2.197,0.693,2.967,1.365   c0.822,0.718,1.222,1.627,1.222,2.78c0,1.106-0.719,2.092-2.137,2.929c-2.816,1.663-7.816,2.449-13.313,2.183   C69.668,66.893,71.304,66.504,72.603,65.96z M77.439,58.743c-0.232-0.454-0.516-0.877-0.869-1.238   c0.495,0.034,0.999,0.088,1.503,0.167C77.897,58.076,77.695,58.445,77.439,58.743z M77.378,51.173   c0.784,0.586,1.206,1.565,1.274,2.909c-1.318-0.239-2.72-0.454-4.167-0.656c-0.347-1.083-0.91-2.064-1.644-2.879   C74.711,50.271,76.328,50.388,77.378,51.173z M73.365,53.269c-1.696-0.219-3.481-0.41-5.326-0.58   c0.096-0.303,0.156-0.617,0.193-0.938c1.162-0.401,2.321-0.747,3.422-0.985C72.394,51.446,72.978,52.304,73.365,53.269z    M69.196,49.771c0.104-0.104,0.191-0.217,0.265-0.339c0.404,0.146,0.79,0.331,1.154,0.552c-0.773,0.195-1.567,0.442-2.366,0.71   c-0.01-0.127-0.019-0.253-0.037-0.381C68.611,50.199,68.946,50.023,69.196,49.771z M66.348,42.165   c0.304,0.956,0.721,2.264,1.726,4.186c0.303,0.579,0.598,1.271,0.649,1.845c-0.407-0.079-0.826-0.118-1.252-0.126   c-0.293-0.554-0.659-1.087-1.101-1.577c-0.521-0.577-1.106-1.037-1.725-1.396c0.401-1.728,0.292-3.417-0.326-4.881   C65.818,40.5,65.954,40.927,66.348,42.165z M63.127,40.042c0.748,1.339,0.945,2.926,0.596,4.607   c-1.066-0.407-2.199-0.506-3.299-0.243c-0.767,0.182-1.445,0.386-2.056,0.611c-0.627-1.008-1.595-1.892-2.821-2.45   c1.524-0.833,2.606-1.872,3.131-2.965c0.698,0.069,1.342,0.13,1.914,0.184C61.631,39.886,62.46,39.964,63.127,40.042z    M60.687,38.792c-0.515-0.049-1.094-0.104-1.71-0.164c0.056-0.333,0.076-0.667,0.022-0.998c-0.036-0.221-0.103-0.431-0.188-0.633   c1.406,0.288,2.633,0.954,3.537,1.957C61.853,38.902,61.302,38.85,60.687,38.792z M51.14,36.886c0.812-0.882,1.394-1.52,3.48-1.277   c0.557,0.065,1.05,0.183,1.487,0.339c-1.022,0.267-1.905,1.016-2.719,2.05c-1.093-0.158-2.024-0.326-2.837-0.5   C50.765,37.292,50.957,37.085,51.14,36.886z M48.026,37.877c-0.889,0.3-2.104,0.473-3.879,0.404   c-0.192-0.008-0.367-0.022-0.548-0.035c0.016-0.19,0.03-0.373,0.047-0.565c0.106-1.218,0.21-2.452,0.265-3.657   c0.166-0.161,0.336-0.318,0.487-0.496c0.192,0.035,0.4,0.067,0.619,0.1c-0.336,0.35-0.725,1.024-0.483,1.81   C44.833,36.41,45.989,37.219,48.026,37.877z M43.604,28.891c-0.058-0.254-0.095-0.479-0.139-0.714   c0.614-0.052,1.31-0.139,2.103-0.285c-0.096,0.916-0.317,1.833-0.642,2.693c-0.342,0.046-0.691,0.089-1.052,0.125   C43.819,30.078,43.736,29.466,43.604,28.891z M43.383,24.508c0.58-0.077,1.206-0.181,1.877-0.317   c0.237,0.748,0.366,1.607,0.369,2.518c-0.753,0.149-1.539,0.262-2.332,0.329C43.188,25.978,43.238,25.147,43.383,24.508z    M44.417,22.649c0.126,0.125,0.241,0.262,0.338,0.408c-0.289,0.058-0.569,0.11-0.841,0.156c0.041-0.061,0.082-0.129,0.124-0.182   C44.161,22.875,44.29,22.754,44.417,22.649z M49.495,23.007c0.011,0.024,0.023,0.049,0.033,0.073   c0.263,0.627,0.397,1.465,0.44,2.407c-0.368,0.134-0.792,0.278-1.256,0.425c-0.065-0.859-0.225-1.669-0.486-2.368   c-0.013-0.035-0.029-0.065-0.043-0.099C48.608,23.314,49.047,23.167,49.495,23.007z M43.941,31.91c0-0.017-0.002-0.033-0.002-0.05   c0.143-0.014,0.283-0.033,0.425-0.049c-0.022,0.038-0.038,0.081-0.06,0.119C44.189,31.907,44.064,31.911,43.941,31.91z    M45.65,32.713c-0.136-0.134-0.278-0.259-0.43-0.368c0.125-0.218,0.227-0.451,0.335-0.681c0.376-0.056,0.745-0.123,1.114-0.191   c-0.232,0.461-0.507,0.886-0.815,1.273C45.789,32.737,45.714,32.723,45.65,32.713z M46.052,30.414   c0.285-0.888,0.465-1.814,0.536-2.73c0.362-0.081,0.741-0.173,1.135-0.277c-0.057,0.934-0.231,1.89-0.528,2.79   C46.83,30.274,46.447,30.346,46.052,30.414z M48.737,27.119c0.398-0.118,0.812-0.25,1.24-0.392c-0.027,0.91-0.117,1.871-0.25,2.812   c-0.428,0.133-0.9,0.266-1.406,0.394C48.572,29.008,48.708,28.05,48.737,27.119z M47.288,23.895c0.253,0.675,0.4,1.467,0.444,2.31   c-0.356,0.1-0.726,0.197-1.112,0.289c-0.02-0.906-0.153-1.759-0.384-2.52c0.32-0.076,0.646-0.159,0.981-0.251   C47.242,23.782,47.268,23.842,47.288,23.895z M47.971,35.501c-0.339-0.017-0.791-0.712-1.18-1.3   c-0.065-0.1-0.134-0.203-0.205-0.309c0.584,0.116,1.247,0.274,2.015,0.508C48.371,35.018,48.15,35.42,47.971,35.501z M48.91,33.449   c-0.739-0.225-1.385-0.381-1.961-0.501c0.367-0.53,0.68-1.108,0.932-1.722c0.556-0.124,1.101-0.26,1.637-0.408   C49.341,31.788,49.129,32.696,48.91,33.449z M52.91,28.279c0,0-0.759,0.413-2.136,0.908c0.111-0.95,0.177-1.903,0.183-2.801   c0.344-0.124,0.686-0.247,1.048-0.388L52.91,28.279z M50.647,22.577l0.905,2.281c0,0-0.229,0.104-0.631,0.266   c-0.063-0.958-0.209-1.805-0.472-2.43c-0.006-0.013-0.013-0.023-0.018-0.036C50.504,22.629,50.574,22.606,50.647,22.577z    M48.192,21.575c0.237,0.052,0.445,0.189,0.628,0.371c-0.421,0.146-0.832,0.279-1.234,0.401c-0.147-0.2-0.303-0.381-0.472-0.531   C47.377,21.656,47.777,21.482,48.192,21.575z M46.53,22.648c-0.257,0.068-0.502,0.125-0.75,0.184   c-0.131-0.24-0.273-0.458-0.428-0.648c0.065-0.012,0.108-0.017,0.109-0.017C45.901,22.168,46.25,22.371,46.53,22.648z    M41.92,23.029c0.642-0.81,1.417-0.864,1.425-0.864c0.041,0,0.076,0.012,0.116,0.015c-0.068,0.072-0.136,0.142-0.202,0.224   c-0.231,0.291-0.414,0.627-0.568,0.99c-0.376,0.046-0.736,0.084-1.068,0.11C41.717,23.323,41.817,23.159,41.92,23.029z    M41.229,24.7c0.338-0.014,0.711-0.039,1.111-0.075c-0.123,0.727-0.144,1.547-0.051,2.467c-0.37,0.009-0.738,0.003-1.104-0.016   C41.081,26.1,41.112,25.319,41.229,24.7z M42.454,28.236c0.052,0.288,0.105,0.577,0.175,0.88c0.121,0.525,0.197,1.088,0.247,1.673   c-0.201,0.014-0.405,0.024-0.61,0.034c-0.238-0.483-0.485-1.105-0.778-1.935c-0.055-0.238-0.088-0.448-0.13-0.669   C41.663,28.237,42.027,28.246,42.454,28.236z M42.938,33.257c-0.002,0.088-0.007,0.177-0.01,0.265   c-0.251,0.108-0.68,0.3-1.204,0.569C42.106,33.782,42.521,33.501,42.938,33.257z M39.949,36.379   c0.911-0.721,2.088-1.348,2.928-1.739c-0.058,0.977-0.141,1.97-0.227,2.954c-0.016,0.188-0.03,0.366-0.046,0.552   c-1.567-0.219-2.52-0.67-2.665-1.297C39.906,36.705,39.911,36.547,39.949,36.379z M38.721,37.766   c0.075-0.163,0.178-0.326,0.304-0.488c0.346,0.988,1.508,1.599,3.496,1.864c-0.004,0.044-0.008,0.092-0.011,0.136   c-1.421-0.482-2.831-0.717-4.186-0.548C38.438,38.422,38.566,38.103,38.721,37.766z M36.895,40.166   c-0.112,0.689-0.111,1.302,0.019,1.828c-0.443-0.029-0.888-0.047-1.336-0.047c-0.322,0-0.646,0.008-0.973,0.024   C35.3,41.137,36.064,40.545,36.895,40.166z M33.834,43.034c1.079-0.101,2.138-0.105,3.187-0.025   c-0.962,1.028-1.548,2.255-1.638,3.447C35.362,46.734,35.38,47,35.41,47.261c-0.653,0.271-1.209,0.742-1.621,1.495   c-0.077,0.14-0.148,0.278-0.214,0.415c-0.743-0.144-1.466-0.227-2.149-0.214c0.023-0.088,0.036-0.17,0.061-0.259   C32.15,46.338,32.929,44.456,33.834,43.034z M28.825,44.146c1.301-0.451,2.546-0.764,3.756-0.956   c-0.787,1.407-1.47,3.148-2.057,5.238c-0.062,0.219-0.108,0.43-0.158,0.642c-1.384,0.285-2.509,1.141-3.124,3.001   c-0.119,0.359-0.206,0.718-0.275,1.075c-0.234,0.03-0.467,0.058-0.701,0.089c-0.56-0.155-1.104-0.284-1.621-0.363   c-0.043-0.169-0.08-0.342-0.111-0.518C23.943,48.978,25.948,45.143,28.825,44.146z M84.629,71.552   c-0.75,1.469-2.385,2.596-4.246,3.553c-1.883,0.946-4.057,1.74-6.411,2.38c-2.359,0.629-4.883,1.167-7.523,1.566   c-2.641,0.39-5.386,0.694-8.186,0.872c-2.79,0.218-5.642,0.269-8.501,0.288c-2.851-0.018-5.704-0.069-8.501-0.288   c-2.8-0.178-5.545-0.482-8.186-0.872c-2.64-0.399-5.164-0.936-7.523-1.566c-2.355-0.64-4.528-1.434-6.411-2.38   c-0.48-0.223-0.926-0.479-1.345-0.752c-0.212-0.133-0.428-0.257-0.629-0.393c-0.19-0.149-0.378-0.296-0.564-0.44   c-0.401-0.277-0.674-0.601-0.971-0.9c-0.295-0.271-0.531-0.774-0.732-1.056c-0.805-1.604-1.889-2.681-2.778-3.558   c0.103,0.041,0.206,0.085,0.309,0.125c2.763,1.05,5.578,1.784,8.384,2.394c5.614,1.226,11.219,1.829,16.638,2.257   c5.431,0.39,10.668,0.586,15.662,0.471c4.982-0.091,9.693-0.363,14.021-0.866c8.448-0.942,15.447-2.472,20.268-4.383   C86.515,68.878,85.423,69.97,84.629,71.552z M91.992,62.711c-0.046,0.079-0.096,0.163-0.149,0.254   c-0.075,0.089-0.154,0.184-0.238,0.285c-0.71,0.814-2.328,1.807-4.609,2.634c-4.561,1.711-11.628,2.976-20.136,3.703   c-4.262,0.331-8.892,0.612-13.798,0.681c-4.894,0.057-10.093,0.062-15.427-0.259c-5.341-0.297-10.846-0.882-16.348-1.856   c-2.744-0.501-5.493-1.127-8.122-2.028c-1.303-0.46-2.595-0.982-3.723-1.669c-0.563-0.341-1.074-0.73-1.482-1.151L7.69,62.982   l-0.199-0.329c-0.052-0.11-0.076-0.217-0.126-0.324c-0.017-0.054-0.012-0.107-0.022-0.159l-0.012-0.079l-0.007-0.04   c-0.005,0.032,0-0.129-0.014,0.062c-0.045-1.055,0.957-1.915,2.056-2.667c1.117-0.736,2.403-1.307,3.701-1.815   c1.501-0.572,3.046-1.047,4.607-1.466c-0.023,0.159-0.033,0.331-0.041,0.506c-0.616,0.168-1.167,0.413-1.627,0.768   C15.007,58.211,14.5,59.409,14.5,61c0,1.358,0.527,2.459,1.568,3.273c1.597,1.249,4.258,1.656,7.054,1.656   c1.165,0,2.351-0.073,3.495-0.183c0.188,0.258,0.406,0.502,0.661,0.729c3.605,3.211,12.775,2.191,13.105,2.149   c2.228,0,4.356-0.44,6.488-1.075c2.432,0.808,4.879,1.476,8.529,1.476c2.519,0,5.624-0.324,9.681-1.134   c1.626,0.172,3.234,0.259,4.786,0.259c4.869,0,9.185-0.827,11.76-2.348c1.719-1.016,2.628-2.326,2.628-3.791   c0-1.438-0.526-2.627-1.563-3.533c-0.886-0.774-2.07-1.26-3.325-1.566c0.073-0.306,0.151-0.606,0.196-0.948   c0.018-0.133,0.023-0.256,0.036-0.385c2.938,0.69,5.47,1.467,7.498,2.303c2.27,0.916,3.875,1.983,4.563,2.844   c0.633,0.794,0.525,1.206,0.54,1.272c-0.011,0.082-0.03,0.219-0.059,0.422C92.074,62.5,92.095,62.547,91.992,62.711z"/></g></svg>