<svg xmlns="http://www.w3.org/2000/svg" xmlns:xlink="http://www.w3.org/1999/xlink" version="1.1" x="0px" y="0px" viewBox="0 0 100 125" enable-background="new 0 0 100 100" xml:space="preserve"><g><path d="M26.89,18.46c-0.4-7.83-6.98-14.39-9.07-14.39c-2.09,0-8.68,6.56-9.08,14.39H8.72v61.899c0,8.16,6.94,15.141,9.101,15.141   c2.159,0,9.09-6.98,9.09-15.141V18.46H26.89z M25.41,73.62v2.12v4.619c0,7.461-6.3,13.461-7.59,13.641   c-1.3-0.18-7.601-6.18-7.601-13.641V75.74v-2.1V25.93c2.16,4.92,6.07,8.41,7.601,8.41c1.52,0,5.42-3.48,7.59-8.39V73.62z    M10.24,18.46c0.399-7.13,6.37-12.75,7.56-12.89c1.23,0.14,7.19,5.75,7.59,12.89c0.011,0.25,0.021,0.5,0.021,0.75   s-0.01,0.51-0.021,0.75c-0.399,7.11-6.319,12.71-7.569,12.88c-1.26-0.17-7.181-5.78-7.58-12.88c-0.01-0.24-0.021-0.5-0.021-0.75   S10.23,18.71,10.24,18.46z"/><path d="M14.97,35.98c-0.42,0-0.75,0.34-0.75,0.75v30.9v1.13v1.15v9.51c0,0.41,0.33,0.75,0.75,0.75c0.41,0,0.75-0.34,0.75-0.75   v-11.2v-0.97v-0.99V36.73C15.72,36.32,15.38,35.98,14.97,35.98z"/><path d="M20.67,35.98c-0.42,0-0.75,0.34-0.75,0.75v29.54v0.98v0.99v11.18c0,0.41,0.33,0.75,0.75,0.75c0.41,0,0.75-0.34,0.75-0.75   v-9.5v-1.16v-1.13v-30.9C21.42,36.32,21.08,35.98,20.67,35.98z"/></g><g><path d="M56.605,23.8c-0.012-0.02-0.023-0.04-0.035-0.061l-0.008-0.014h-0.002c-1.262-2.201-6.178-5.672-10.759-7.812   c-5.996-2.811-12.254-3.741-13.547-2.995c-0.229,0.132-0.341,0.313-0.399,0.426c-0.063,0.149-0.17,0.412,0.082,0.944l-0.011,0.006   l34.128,59.188c0.786,1.361,3.438,4.908,11.063,8.403c4.034,1.851,7.373,2.606,9.002,2.894c2.813,0.494,4.012,0.269,4.55-0.041   c0.303-0.176,0.396-0.377,0.449-0.493l0.16-0.353L56.605,23.8z M33.681,14.149c0,0,0,0,0.015,0.004   c1.795-0.011,6.454,0.736,11.506,3.112c5.604,2.622,9.274,5.84,10.067,7.041c-0.088,0.005-0.191,0.02-0.302,0.025   c-0.005-0.009-0.014-0.003-0.014-0.003l-0.009,0.005c-1.719,0.046-6.244-0.766-11.475-3.212c-4.692-2.202-8.135-5.045-9.543-6.562   c-0.134-0.152-0.257-0.289-0.349-0.409C33.61,14.144,33.645,14.147,33.681,14.149z M77.743,80.523   c-7.437-3.409-9.832-6.825-10.39-7.791L35.97,18.303c0.074,0.056,0.134,0.105,0.213,0.163c1.532,1.145,3.818,2.65,6.68,3.996   c5.376,2.522,10.86,3.68,12.942,3.262c0.061-0.015,0.094-0.038,0.147-0.054l33.409,57.895   C87.73,83.691,83.107,82.982,77.743,80.523z"/><path d="M48.14,28.276c-0.207-0.359-0.666-0.482-1.023-0.275c-0.359,0.207-0.482,0.666-0.275,1.024L68.218,66.07   c0.207,0.359,0.666,0.48,1.025,0.273c0.356-0.205,0.479-0.664,0.272-1.023L48.14,28.276z"/><path d="M55.727,35.687l21.377,37.045c0.207,0.356,0.664,0.479,1.023,0.272c0.357-0.207,0.48-0.666,0.275-1.022L57.025,34.937   c-0.207-0.358-0.666-0.481-1.025-0.274C55.643,34.869,55.52,35.328,55.727,35.687z"/></g><text x="0" y="115" fill="#000000" font-size="5px" font-weight="bold" font-family="'Helvetica Neue', Helvetica, Arial-Unicode, Arial, Sans-serif">Created by Theresa Stoodley</text><text x="0" y="120" fill="#000000" font-size="5px" font-weight="bold" font-family="'Helvetica Neue', Helvetica, Arial-Unicode, Arial, Sans-serif">from the Noun Project</text></svg>