<svg xmlns="http://www.w3.org/2000/svg" data-name="Layer 1" viewBox="0 0 48 60" x="0px" y="0px"><title>food_drinks_tnp</title><path d="M19.71,11.29a1,1,0,1,1-1.41,1.41l-5-5a1,1,0,0,1,1.41-1.41ZM25,24.39V46h7a1,1,0,0,1,0,2H16a1,1,0,0,1,0-2h7V24.39L4.26,3.67A1,1,0,0,1,5,2H43a1,1,0,0,1,.74,1.67ZM40.75,4H7.25L24,22.51Z"/><text x="0" y="63" fill="#000000" font-size="5px" font-weight="bold" font-family="'Helvetica Neue', Helvetica, Arial-Unicode, Arial, Sans-serif">Created by Hare Krishna</text><text x="0" y="68" fill="#000000" font-size="5px" font-weight="bold" font-family="'Helvetica Neue', Helvetica, Arial-Unicode, Arial, Sans-serif">from the Noun Project</text></svg>